<?xml version="1.0" encoding="UTF-8" standalone="no"?>
<!-- Created with Inkscape (http://www.inkscape.org/) -->

<svg
   width="8.4435511mm"
   height="24.147999mm"
   viewBox="0 0 8.4435511 24.147999"
   version="1.1"
   id="svg5"
   xmlns="http://www.w3.org/2000/svg"
   xmlns:svg="http://www.w3.org/2000/svg">
  <defs
     id="defs2" />
  <g
     id="layer1"
     transform="translate(59.843715,73.787718)">
    <path
       style="fill:#e5d48e;fill-opacity:1;stroke-width:0.352782"
       d="m -59.656882,-49.947461 c -0.10717,-0.173413 0.19137,-1.165612 0.66342,-2.204903 0.99405,-2.188533 1.79645,-5.168681 1.47752,-5.487607 -0.12073,-0.120727 -0.5108,0.0441 -0.86681,0.366297 -0.35602,0.322196 -0.83324,0.585811 -1.0605,0.585811 -0.55779,0 -0.52639,-2.094821 0.0536,-3.572959 0.52032,-1.326156 0.53737,-1.685504 0.11179,-2.356546 -0.18481,-0.291416 0.0446,-0.97083 0.62277,-1.844557 0.50344,-0.760764 0.91534,-1.525929 0.91534,-1.700363 0,-0.174434 0.23813,-0.514779 0.52917,-0.756335 0.96145,-0.797945 0.41211,-2.451737 -1.4993,-4.513677 -1.16034,-1.251715 0.23324,-3.00754 1.67396,-2.109092 0.39605,0.246974 1.01262,1.039991 1.37017,1.762255 0.35755,0.722273 0.75154,1.211764 0.87554,1.087761 0.12401,-0.124019 0.22546,0.267875 0.22546,0.870857 0,0.602992 0.14591,1.186513 0.32423,1.296725 0.28476,0.175994 0.7765,1.972089 1.30875,4.780233 0.0919,0.48508 0.4765,1.890898 0.85459,3.124031 0.73965,2.412367 0.9066,5.165711 0.33466,5.519198 -0.19403,0.119907 -0.35278,0.667934 -0.35278,1.217824 0,0.586231 -0.23082,1.088361 -0.55802,1.213924 -1.09401,0.419818 -1.55865,0.220734 -1.55865,-0.667823 0,-0.48508 -0.15875,-0.881967 -0.35278,-0.881967 -0.19402,0 -0.35277,0.310036 -0.35277,0.688973 0,0.378938 -0.18866,1.103031 -0.41923,1.609101 -0.31309,0.687164 -0.60679,0.873047 -1.16003,0.734195 -0.51501,-0.129263 -0.9399,0.0792 -1.39407,0.684003 -0.66573,0.886507 -1.41539,1.121951 -1.766,0.554641 z"
       id="path5507" />
  </g>
</svg>
